<svg viewBox="0 0 64 64" version="1.1" xmlns="http://www.w3.org/2000/svg">
  <g transform="translate(-3,-18) scale(0.4,0.4)">
    <path style="fill:var(--blue);fill-opacity:1;stroke:none;stroke-width:3.056;stroke-dasharray:none"
      d="m 47.979187,139.5223 c 1.221974,-4.25042 -5.76292,-3.74579 -5.932253,-0.30672 -2.878996,2.87995 2.455869,3.3629 3.979023,4.97585 2.641379,2.32349 6.17939,-1.62888 2.513566,-3.22523 -0.379125,-0.36856 -0.644021,-0.90097 -0.560336,-1.4439 z" />
    <path style="fill:var(--blue);fill-opacity:1;stroke:none;stroke-width:3.05599;stroke-dasharray:none"
      d="M 100.66799,134.81268 74.765113,129.80872" />
    <path style="fill:var(--blue);fill-opacity:1;stroke:none;stroke-width:3.05599;stroke-dasharray:none"
      d="M 98.901881,132.16353 109.20416,119.80079" />
    <path style="fill:var(--blue);fill-opacity:1;stroke:none;stroke-width:3.05599;stroke-dasharray:none"
      d="m 67.000988,132.27889 c 1.616634,0.61371 3.090398,1.6541 4.835538,1.88992 0.539406,-0.15711 1.192543,-0.33504 1.6768,0.0612 0.282732,0.086 0.625112,-0.0273 0.928092,-0.048 0.74172,-0.11527 1.507852,-0.37213 2.024219,-0.94388 0.221997,-0.50988 -0.189496,-0.99267 -0.545832,-1.31303 -0.258643,-0.28156 -0.57416,-0.52569 -0.976372,-0.52485 -0.332295,0.0474 -0.650585,-0.23242 -0.279643,-0.48289 0.403081,-0.27602 0.230077,-0.809 -0.242488,-0.83936 -0.377925,-0.078 -0.693164,-0.29194 -0.922338,-0.59757 -0.710095,-0.71211 -1.61428,-1.17515 -2.42337,-1.75861 -0.224991,-0.26591 -0.655608,-0.51819 -0.984447,-0.2902 -0.304719,0.23461 0.03705,0.91644 0.28708,0.42046 0.129136,-0.34715 -0.04822,-0.90258 -0.487673,-0.87128 -0.485035,-0.23051 -1.186291,-0.37509 -1.591201,0.0765 -0.216973,0.35012 -0.314669,0.76362 -0.506904,1.12965 -0.45261,0.98059 -0.938543,2.02704 -0.804104,3.13685 0.0071,0.31835 0.01946,0.63676 0.01289,0.95524 z" />
    <path style="fill:var(--blue);fill-opacity:1;stroke:none;stroke-width:3.05599;stroke-dasharray:none"
      d="m 88.599602,108.90981 c -0.468915,1.53363 -0.421272,3.17182 -0.167905,4.72778 -0.346509,1.52273 -2.11752,1.95281 -3.374751,2.49115 -1.750725,0.58328 -3.646995,0.69771 -5.462228,0.38212 -1.748762,-0.86792 0.0039,-2.74663 0.928336,-3.5318 0.683568,-1.35645 1.78537,-2.34214 3.315675,-2.52292 0.552476,-0.24067 1.048574,-0.5903 1.523014,-0.95763" />
    <path style="fill:var(--blue);fill-opacity:1;stroke:none;stroke-width:3.05599;stroke-dasharray:none"
      d="m 100.07928,101.84539 c -1.121874,-0.70687 -2.392455,0.50841 -3.560417,-0.0263 -0.740695,-0.30483 -1.797938,-0.89383 -1.499851,-1.859971 0.528781,-0.828848 1.507695,-1.264079 2.276701,-1.851705 1.015563,-0.02432 1.415872,-1.308488 2.512626,-1.044538 0.733691,-0.338099 1.361121,-0.876928 2.077741,-1.346825 0.43179,-0.123165 1.30934,-1.492376 1.12853,-0.370223 -0.032,0.495023 0.64271,0.386714 0.60409,1.012799 0.32821,0.942566 0.16907,2.264415 1.19364,2.797344 0.75947,0.383419 0.69624,1.449489 0.47038,2.118539 -0.88112,0.2908 -1.87608,0.26003 -2.80602,0.38387 -0.79871,0.0677 -1.59848,0.12319 -2.39742,0.18698 z" />
    <path style="fill:var(--blue);fill-opacity:1;stroke:none;stroke-width:3.05599;stroke-dasharray:none"
      d="m 120.09514,88.893953 c 1.17117,1.248209 0.49786,3.006504 -0.61147,3.998379 -0.78293,1.093658 -0.4543,3.130909 1.1688,3.092513 1.84317,0.02851 3.6097,-0.610438 5.32969,-1.203876 0.74259,0.1101 1.54152,-1.129921 1.91935,-1.166908 -0.76866,-0.741283 -2.13435,-1.1888 -1.60423,-2.578689 -0.0938,-1.011215 0.69421,-3.706301 -1.07497,-3.132777 -1.04271,0.558889 -2.1944,0.785758 -3.37455,0.754006 -0.59669,1.92e-4 -1.16626,0.168032 -1.75262,0.237352 z" />
  </g>
  <circle cx="32" cy="32" r="27" stroke="#ffaaaa" stroke-width="5" fill="none" />
  <line x1="13" y1="13" x2="51" y2="51" stroke="#ffaaaa" stroke-width="5" stroke-linecap="round" />
</svg>
